<svg width="1600" height="500" viewBox="0 0 1600 500" fill="none" xmlns="http://www.w3.org/2000/svg">
  <rect width="1600" height="500" rx="36" fill="#7C2D12"/>
  <rect width="1600" height="500" rx="36" fill="url(#paint0_linear_3_1)"/>
  <circle cx="1304" cy="72" r="160" fill="#FFF7ED" fill-opacity="0.18"/>
  <circle cx="1487" cy="276" r="180" fill="#FFF7ED" fill-opacity="0.1"/>
  <path d="M0 404C186.138 332.567 303.074 313.847 470 336C651.122 360.028 751.193 456.194 946.5 448.5C1137.31 440.983 1240.98 343.777 1457 336C1511.52 334.037 1559.18 337.35 1600 343.5V500H0V404Z" fill="white" fill-opacity="0.09"/>
  <text x="96" y="176" fill="white" font-family="Arial, sans-serif" font-size="42" font-weight="700">Daily rewards and faster conversions</text>
  <text x="96" y="236" fill="#FFEDD5" font-family="Arial, sans-serif" font-size="22" font-weight="500">Keep users engaged with updated promos across the GMTPay home experience.</text>
  <rect x="96" y="292" width="230" height="54" rx="27" fill="#FFF7ED"/>
  <text x="140" y="326" fill="#9A3412" font-family="Arial, sans-serif" font-size="22" font-weight="700">View Rewards</text>
  <text x="1100" y="176" fill="white" font-family="Arial, sans-serif" font-size="60" font-weight="700">3.5%</text>
  <text x="1103" y="222" fill="#FFEDD5" font-family="Arial, sans-serif" font-size="22" font-weight="600">bonus spotlight</text>
  <defs>
    <linearGradient id="paint0_linear_3_1" x1="0" y1="0" x2="1600" y2="500" gradientUnits="userSpaceOnUse">
      <stop stop-color="#EA580C"/>
      <stop offset="0.5" stop-color="#F97316"/>
      <stop offset="1" stop-color="#BE123C"/>
    </linearGradient>
  </defs>
</svg>